<svg width="80" height="80" viewBox="0 0 80 80" fill="none" xmlns="http://www.w3.org/2000/svg">
    <path
        d="M33.3281 5.06249C36.0469 5.51562 37.8906 8.09374 37.4375 10.8125L35.9063 20H50.7656L52.5625 9.17187C53.0156 6.45312 55.5938 4.60937 58.3125 5.06249C61.0313 5.51562 62.875 8.09374 62.4219 10.8125L60.9062 20H70C72.7656 20 75 22.2344 75 25C75 27.7656 72.7656 30 70 30H59.2344L55.9062 50H65C67.7656 50 70 52.2344 70 55C70 57.7656 67.7656 60 65 60H54.2344L52.4375 70.8281C51.9844 73.5469 49.4062 75.3906 46.6875 74.9375C43.9687 74.4844 42.125 71.9062 42.5781 69.1875L44.1094 60.0156H29.2344L27.4375 70.8437C26.9844 73.5625 24.4063 75.4062 21.6875 74.9531C18.9688 74.5 17.125 71.9219 17.5781 69.2031L19.0937 60H10C7.23437 60 5 57.7656 5 55C5 52.2344 7.23437 50 10 50H20.7656L24.0937 30H15C12.2344 30 10 27.7656 10 25C10 22.2344 12.2344 20 15 20H25.7656L27.5625 9.17187C28.0156 6.45312 30.5937 4.60937 33.3125 5.06249H33.3281ZM34.2344 30L30.9063 50H45.7656L49.0938 30H34.2344Z"
        fill="#d4d4d8" />
</svg>