<svg width="80" height="80" viewBox="0 0 80 80" fill="none" xmlns="http://www.w3.org/2000/svg">
<g clip-path="url(#clip0_290_2)">
<path d="M65.0001 41.9067L40.0001 66.6667L15.0001 41.9067C13.3511 40.3021 12.0522 38.3734 11.1853 36.2421C10.3183 34.1109 9.90198 31.8232 9.96257 29.5231C10.0232 27.2231 10.5593 24.9605 11.5373 22.8778C12.5153 20.7951 13.9139 18.9375 15.6451 17.4219C17.3762 15.9064 19.4025 14.7656 21.5961 14.0716C23.7898 13.3776 26.1035 13.1453 28.3913 13.3893C30.6792 13.6334 32.8918 14.3485 34.8897 15.4897C36.8876 16.6309 38.6276 18.1733 40.0001 20.02C41.3786 18.1867 43.1206 16.6577 45.1171 15.5287C47.1137 14.3996 49.3218 13.6948 51.6032 13.4584C53.8847 13.222 56.1904 13.459 58.376 14.1546C60.5617 14.8503 62.5802 15.9896 64.3053 17.5012C66.0304 19.0129 67.4249 20.8643 68.4015 22.9397C69.3782 25.015 69.9159 27.2696 69.9811 29.5624C70.0464 31.8551 69.6376 34.1367 68.7806 36.2642C67.9235 38.3917 66.6365 40.3194 65.0001 41.9267" stroke="white" stroke-width="6.66667" stroke-linecap="round" stroke-linejoin="round"/>
</g>
<defs>
<clipPath id="clip0_290_2">
<rect width="80" height="80" fill="white"/>
</clipPath>
</defs>
</svg>
