<svg
    viewBox="0 0 54 57"
    fill="none"
    xmlns="http://www.w3.org/2000/svg"
    className="h-7 w-7"
    >
    <path
        d="M0.838838 45.8C-0.242741 47.9333 -0.278397 50.6143 0.731868 52.7909C1.74213 54.9674 3.64381 56.3224 5.71188 56.3224H47.5488C49.6168 56.3224 51.5185 54.9674 52.5288 52.7909C53.539 50.6143 53.4915 47.9333 52.4218 45.8L31.5034 4.28695C30.4693 2.22572 28.6271 0.97168 26.6303 0.97168C24.6336 0.97168 22.8032 2.22572 21.7573 4.28695L0.838838 45.8Z"
        fill="white"
    />
    <path
        d="M45.6321 11.473C46.8684 9.00378 45.8066 6.1357 43.2603 5.06695C40.7141 3.9982 37.6478 5.13349 36.4114 7.6027L45.6321 11.473ZM31.2385 40.2203L45.6321 11.473L36.4114 7.6027L22.0178 36.35L31.2385 40.2203Z"
        fill="white"
    />
</svg>