<svg viewBox="0 0 60 57" fill="none" xmlns="http://www.w3.org/2000/svg">
<path d="M34.2948 4.38458C34.2948 1.95934 32.2667 -3.05176e-05 29.7563 -3.05176e-05C27.246 -3.05176e-05 25.2179 1.95934 25.2179 4.38458V24.1154H4.79481C2.28447 24.1154 0.256348 26.0747 0.256348 28.5C0.256348 30.9252 2.28447 32.8846 4.79481 32.8846H25.2179V52.6154C25.2179 55.0406 27.246 57 29.7563 57C32.2667 57 34.2948 55.0406 34.2948 52.6154V32.8846H54.7179C57.2282 32.8846 59.2563 30.9252 59.2563 28.5C59.2563 26.0747 57.2282 24.1154 54.7179 24.1154H34.2948V4.38458Z" fill="white"/>
</svg>
