<svg
  viewBox="0 0 71 71"
  fill="none"
  xmlns="http://www.w3.org/2000/svg"
>
  <g clip-path="url(#clip0_241_2)">
    <path
      d="M8.875 29.5833C8.875 32.3028 9.41064 34.9956 10.4513 37.5081C11.492 40.0205 13.0174 42.3034 14.9403 44.2263C16.8633 46.1493 19.1461 47.6746 21.6586 48.7153C24.171 49.756 26.8639 50.2917 29.5833 50.2917C32.3028 50.2917 34.9956 49.756 37.5081 48.7153C40.0205 47.6746 42.3034 46.1493 44.2263 44.2263C46.1493 42.3034 47.6746 40.0205 48.7153 37.5081C49.756 34.9956 50.2917 32.3028 50.2917 29.5833C50.2917 26.8639 49.756 24.171 48.7153 21.6586C47.6746 19.1461 46.1493 16.8633 44.2263 14.9403C42.3034 13.0174 40.0205 11.492 37.5081 10.4513C34.9956 9.41064 32.3028 8.875 29.5833 8.875C26.8639 8.875 24.171 9.41064 21.6586 10.4513C19.1461 11.492 16.8633 13.0174 14.9403 14.9403C13.0174 16.8633 11.492 19.1461 10.4513 21.6586C9.41064 24.171 8.875 26.8639 8.875 29.5833Z"
      stroke="white"
      stroke-width="5"
      stroke-linecap="round"
      stroke-linejoin="round"
    />
    <path
      d="M62.125 62.125L44.375 44.375"
      stroke="white"
      stroke-width="5"
      stroke-linecap="round"
      stroke-linejoin="round"
    />
  </g>
  <defs>
    <clipPath id="clip0_241_2">
      <rect width="71" height="71" fill="white" />
    </clipPath>
  </defs>
</svg>
