<svg viewBox="0 0 58 60" fill="none" xmlns="http://www.w3.org/2000/svg">
<path d="M57.1042 19.5214C57.1006 19.5249 57.0995 19.5303 57.1012 19.535C57.4747 20.5528 57.1553 21.6858 56.3424 22.4106L53.1815 25.2647C51.9587 26.3689 51.3989 28.0045 51.4259 29.6518C51.4278 29.7697 51.4288 29.8877 51.4288 30.0058C51.4288 30.124 51.4278 30.242 51.4259 30.3598C51.3989 32.0072 51.9587 33.6428 53.1815 34.7469L56.3424 37.6011C57.1574 38.3278 57.4763 39.4647 57.0983 40.4844C56.5786 41.8792 55.9526 43.2154 55.2321 44.5048L54.677 45.4542C53.8974 46.7435 53.0233 47.9625 52.0666 49.1111C51.3697 49.955 50.2122 50.2363 49.1727 49.9082L45.0674 48.6136C43.5164 48.1245 41.8431 48.4528 40.4469 49.2868C40.2208 49.4219 39.9923 49.5531 39.7613 49.6804C38.3231 50.4732 37.1854 51.7679 36.8316 53.3715L35.9201 57.5034C35.6839 58.57 34.8571 59.4139 33.7704 59.5897C32.1404 59.8593 30.4631 60 28.7504 60C27.0378 60 25.3605 59.8593 23.7305 59.5897C22.6438 59.4139 21.817 58.57 21.5808 57.5034L20.6693 53.3715C20.3155 51.7679 19.1778 50.4732 17.7396 49.6804C17.5106 49.5542 17.284 49.4241 17.0598 49.2903C15.6602 48.4548 13.9823 48.1274 12.4287 48.6209L8.33996 49.9199C7.30053 50.2481 6.143 49.955 5.44611 49.1228C4.48937 47.9742 3.61531 46.7552 2.83574 45.4659L2.28059 44.5165C1.56009 43.2272 0.93407 41.891 0.414358 40.4962C0.0363865 39.4764 0.3553 38.3395 1.1703 37.6128L4.33487 34.7553C5.55565 33.653 6.11529 32.021 6.08712 30.3764C6.08501 30.2531 6.08394 30.1295 6.08394 30.0058C6.08394 29.8877 6.08491 29.7697 6.08684 29.6518C6.11381 28.0045 5.55401 26.3689 4.33118 25.2647L1.1703 22.4106C0.3553 21.6839 0.0363865 20.547 0.414358 19.5272C0.93407 18.1324 1.56009 16.7962 2.28059 15.5069L2.83574 14.5575C3.61531 13.2682 4.48937 12.0492 5.44611 10.9005C6.143 10.0566 7.30053 9.77532 8.33996 10.1035L12.4453 11.3981C13.9963 11.8872 15.6696 11.5588 17.0658 10.7248C17.2919 10.5898 17.5204 10.4585 17.7514 10.3312C19.1896 9.53845 20.3273 8.24378 20.6811 6.64015L21.5926 2.50827C21.8288 1.44166 22.6556 0.597742 23.7423 0.421927C25.3723 0.140622 27.0496 -3.05176e-05 28.7623 -3.05176e-05C30.4749 -3.05176e-05 32.1522 0.140622 33.7822 0.410206C34.8689 0.586021 35.6957 1.42994 35.9319 2.49655L36.8434 6.62843C37.1972 8.23206 38.3349 9.52673 39.7731 10.3195C40.0041 10.4468 40.2327 10.5781 40.4587 10.7131C41.8549 11.5471 43.5282 11.8754 45.0792 11.3864L49.1846 10.0918C50.224 9.7636 51.3815 10.0566 52.0784 10.8888C53.0351 12.0375 53.9092 13.2565 54.6888 14.5458L55.2439 15.4952C55.9631 16.7821 56.5881 18.1157 57.1072 19.5077C57.109 19.5124 57.1078 19.5178 57.1042 19.5214V19.5214ZM28.7623 39.3827C31.2684 39.3827 33.6718 38.3947 35.4439 36.6363C37.216 34.8778 38.2116 32.4927 38.2116 30.0058C38.2116 27.5189 37.216 25.1339 35.4439 23.3754C33.6718 21.6169 31.2684 20.629 28.7623 20.629C26.2561 20.629 23.8527 21.6169 22.0806 23.3754C20.3085 25.1339 19.313 27.5189 19.313 30.0058C19.313 32.4927 20.3085 34.8778 22.0806 36.6363C23.8527 38.3947 26.2561 39.3827 28.7623 39.3827Z" fill="white"/>
</svg>
