<svg
  viewBox="0 0 66 66"
  fill="none"
  xmlns="http://www.w3.org/2000/svg"
>
  <path
    d="M8.53126 17.4662C8.26173 17.1695 7.89258 17 7.5 17C7.10742 17 6.73828 17.1695 6.46874 17.4662L0.374941 24.2475C-0.00592124 24.6713 -0.105531 25.2889 0.117127 25.8156C0.339785 26.3424 0.849555 26.6875 1.4062 26.6875H4.68748V38.3125H1.4062C0.849555 38.3125 0.339785 38.6576 0.117127 39.1844C-0.105531 39.7111 -0.00592124 40.3287 0.374941 40.7525L6.46874 47.5338C6.73242 47.8305 7.10742 48 7.5 48C7.89258 48 8.26173 47.8305 8.53126 47.5338L14.6251 40.7525C15.0059 40.3287 15.1055 39.7111 14.8829 39.1844C14.6602 38.6576 14.1504 38.3125 13.5938 38.3125H10.3125V26.6875H13.5938C14.1504 26.6875 14.6602 26.3424 14.8829 25.8156C15.1055 25.2889 15.0059 24.6713 14.6251 24.2475L8.53126 17.4662Z"
    fill="white"
  />
  <path
    d="M61.7443 48.2874C60.961 51.6176 58.4152 53.4893 55.0004 54.1213C52.0018 54.6682 49.505 54.8019 47.1061 52.8816C44.1809 50.4387 44.1442 46.3914 46.7756 43.8391C48.8563 41.8702 51.7815 41.4692 56.1754 40.7035C56.9098 40.5698 57.5462 40.3996 58.0848 39.8041C58.8681 38.929 58.6233 39.3058 58.6233 19.9691C58.6233 18.6078 57.9501 18.2311 56.5426 18.4741C55.539 18.6443 33.8142 22.6794 33.8142 22.6794C32.5658 22.9468 32.1741 23.3114 32.1741 24.7091C32.1741 53.234 32.3088 51.9214 31.8681 53.8174C31.3541 56.0294 29.9833 57.6945 28.1719 58.6182C26.1157 59.7485 22.3949 60.2468 20.4121 59.8822C15.1248 58.8977 13.2644 52.833 16.8505 49.357C18.9312 47.3881 21.8564 46.987 26.2503 46.2213C26.9846 46.0876 27.6211 45.9174 28.1596 45.3219C29.3958 43.9242 28.3799 14.1352 28.7961 12.4823C28.894 11.8503 29.1632 11.3156 29.6651 10.9145C30.1791 10.4891 31.1093 10.246 31.3051 10.246C56.2733 5.60326 59.3209 5.00773 59.7493 5.00773C61.1568 4.9105 61.9646 5.73696 61.9646 7.1468C61.9891 49.0167 62.0993 46.7682 61.7443 48.2874Z"
    fill="white"
  />
</svg>