<svg viewBox="0 0 70 70" fill="none" xmlns="http://www.w3.org/2000/svg">
<g clip-path="url(#clip0_195_9)">
<path d="M58.3333 17.5C59.0767 17.5008 59.7917 17.7855 60.3323 18.2958C60.8728 18.8061 61.1981 19.5036 61.2417 20.2457C61.2853 20.9879 61.0438 21.7186 60.5667 22.2887C60.0895 22.8587 59.4127 23.2251 58.6745 23.3129L58.3333 23.3333H58.097L55.4166 55.4167C55.4167 57.6485 54.564 59.7961 53.0329 61.4199C51.5017 63.0438 49.408 64.0211 47.1799 64.1521L46.6666 64.1667H23.3333C18.6724 64.1667 14.8633 60.5237 14.6066 56.1458L14.592 55.6587L11.8999 23.3333H11.6666C10.9232 23.3325 10.2082 23.0479 9.66762 22.5375C9.12705 22.0272 8.80176 21.3297 8.75819 20.5876C8.71462 19.8455 8.95608 19.1147 9.43322 18.5447C9.91035 17.9746 10.5872 17.6082 11.3254 17.5204L11.6666 17.5H58.3333Z" fill="white"/>
<path d="M40.8333 5.83333C42.3803 5.83333 43.8641 6.44791 44.958 7.54187C46.052 8.63583 46.6666 10.1196 46.6666 11.6667C46.6658 12.4101 46.3811 13.1251 45.8708 13.6657C45.3605 14.2062 44.663 14.5315 43.9208 14.5751C43.1787 14.6186 42.448 14.3772 41.8779 13.9001C41.3078 13.4229 40.9415 12.7461 40.8537 12.0079L40.8333 11.6667H29.1666L29.1462 12.0079C29.0584 12.7461 28.692 13.4229 28.1219 13.9001C27.5519 14.3772 26.8211 14.6186 26.079 14.5751C25.3369 14.5315 24.6394 14.2062 24.1291 13.6657C23.6187 13.1251 23.3341 12.4101 23.3333 11.6667C23.3328 10.195 23.8886 8.77751 24.8893 7.6984C25.89 6.61928 27.2616 5.95829 28.7291 5.84791L29.1666 5.83333H40.8333Z" fill="white"/>
</g>
<defs>
<clipPath id="clip0_195_9">
<rect width="70" height="70" fill="white"/>
</clipPath>
</defs>
</svg>
