<svg width="86" height="86" viewBox="0 0 86 86" fill="none" xmlns="http://www.w3.org/2000/svg">
<g clip-path="url(#clip0_258_30)">
<path d="M74.3333 33.5C75.0767 33.5008 75.7917 33.7855 76.3323 34.2958C76.8728 34.8061 77.1981 35.5036 77.2417 36.2457C77.2853 36.9879 77.0438 37.7186 76.5667 38.2887C76.0895 38.8587 75.4127 39.2251 74.6745 39.3129L74.3333 39.3333H74.097L71.4166 71.4167C71.4167 73.6485 70.564 75.7961 69.0329 77.4199C67.5017 79.0438 65.408 80.0211 63.1799 80.1521L62.6666 80.1667H39.3333C34.6724 80.1667 30.8633 76.5237 30.6066 72.1458L30.592 71.6587L27.8999 39.3333H27.6666C26.9232 39.3325 26.2082 39.0479 25.6676 38.5375C25.1271 38.0272 24.8018 37.3297 24.7582 36.5876C24.7146 35.8455 24.9561 35.1147 25.4332 34.5447C25.9104 33.9746 26.5872 33.6082 27.3254 33.5204L27.6666 33.5H74.3333Z" fill="#808080"/>
<path d="M56.8333 21.8333C58.3803 21.8333 59.8641 22.4479 60.958 23.5419C62.052 24.6358 62.6666 26.1196 62.6666 27.6667C62.6658 28.4101 62.3811 29.1251 61.8708 29.6657C61.3605 30.2062 60.663 30.5315 59.9208 30.5751C59.1787 30.6186 58.448 30.3772 57.8779 29.9001C57.3078 29.4229 56.9415 28.7461 56.8537 28.0079L56.8333 27.6667H45.1666L45.1462 28.0079C45.0584 28.7461 44.692 29.4229 44.1219 29.9001C43.5519 30.3772 42.8211 30.6186 42.079 30.5751C41.3369 30.5315 40.6394 30.2062 40.1291 29.6657C39.6187 29.1251 39.3341 28.4101 39.3333 27.6667C39.3328 26.195 39.8886 24.7775 40.8893 23.6984C41.89 22.6193 43.2616 21.9583 44.7291 21.8479L45.1666 21.8333H56.8333Z" fill="#808080"/>
</g>
<g clip-path="url(#clip1_258_30)">
<path d="M66.3333 25.5C67.0767 25.5008 67.7917 25.7855 68.3323 26.2958C68.8728 26.8061 69.1981 27.5036 69.2417 28.2457C69.2853 28.9879 69.0438 29.7186 68.5667 30.2887C68.0895 30.8587 67.4127 31.2251 66.6745 31.3129L66.3333 31.3333H66.097L63.4166 63.4167C63.4167 65.6485 62.564 67.7961 61.0329 69.4199C59.5017 71.0438 57.408 72.0211 55.1799 72.1521L54.6666 72.1667H31.3333C26.6724 72.1667 22.8633 68.5237 22.6066 64.1458L22.592 63.6587L19.8999 31.3333H19.6666C18.9232 31.3325 18.2082 31.0479 17.6676 30.5375C17.1271 30.0272 16.8018 29.3297 16.7582 28.5876C16.7146 27.8455 16.9561 27.1147 17.4332 26.5447C17.9104 25.9746 18.5872 25.6082 19.3254 25.5204L19.6666 25.5H66.3333Z" fill="#BFBFBF"/>
<path d="M48.8333 13.8333C50.3803 13.8333 51.8641 14.4479 52.958 15.5419C54.052 16.6358 54.6666 18.1196 54.6666 19.6667C54.6658 20.4101 54.3811 21.1251 53.8708 21.6657C53.3605 22.2062 52.663 22.5315 51.9208 22.5751C51.1787 22.6186 50.448 22.3772 49.8779 21.9001C49.3078 21.4229 48.9415 20.7461 48.8537 20.0079L48.8333 19.6667H37.1666L37.1462 20.0079C37.0584 20.7461 36.692 21.4229 36.1219 21.9001C35.5519 22.3772 34.8211 22.6186 34.079 22.5751C33.3369 22.5315 32.6394 22.2062 32.1291 21.6657C31.6187 21.1251 31.3341 20.4101 31.3333 19.6667C31.3328 18.195 31.8886 16.7775 32.8893 15.6984C33.89 14.6193 35.2616 13.9583 36.7291 13.8479L37.1666 13.8333H48.8333Z" fill="#BFBFBF"/>
</g>
<g clip-path="url(#clip2_258_30)">
<path d="M58.3333 17.5C59.0767 17.5008 59.7917 17.7855 60.3323 18.2958C60.8728 18.8061 61.1981 19.5036 61.2417 20.2457C61.2853 20.9879 61.0438 21.7186 60.5667 22.2887C60.0895 22.8587 59.4127 23.2251 58.6745 23.3129L58.3333 23.3333H58.097L55.4166 55.4167C55.4167 57.6485 54.564 59.7961 53.0329 61.4199C51.5017 63.0438 49.408 64.0211 47.1799 64.1521L46.6666 64.1667H23.3333C18.6724 64.1667 14.8633 60.5237 14.6066 56.1458L14.592 55.6587L11.8999 23.3333H11.6666C10.9232 23.3325 10.2082 23.0479 9.66762 22.5375C9.12705 22.0272 8.80176 21.3297 8.75819 20.5876C8.71462 19.8455 8.95608 19.1147 9.43322 18.5447C9.91035 17.9746 10.5872 17.6082 11.3254 17.5204L11.6666 17.5H58.3333Z" fill="white"/>
<path d="M40.8333 5.83333C42.3803 5.83333 43.8641 6.44791 44.958 7.54187C46.052 8.63583 46.6666 10.1196 46.6666 11.6667C46.6658 12.4101 46.3811 13.1251 45.8708 13.6657C45.3605 14.2062 44.663 14.5315 43.9208 14.5751C43.1787 14.6186 42.448 14.3772 41.8779 13.9001C41.3078 13.4229 40.9415 12.7461 40.8537 12.0079L40.8333 11.6667H29.1666L29.1462 12.0079C29.0584 12.7461 28.692 13.4229 28.1219 13.9001C27.5519 14.3772 26.8211 14.6186 26.079 14.5751C25.3369 14.5315 24.6394 14.2062 24.1291 13.6657C23.6187 13.1251 23.3341 12.4101 23.3333 11.6667C23.3328 10.195 23.8886 8.77751 24.8893 7.6984C25.89 6.61928 27.2616 5.95829 28.7291 5.84791L29.1666 5.83333H40.8333Z" fill="white"/>
</g>
<defs>
<clipPath id="clip0_258_30">
<rect width="70" height="70" fill="white" transform="translate(16 16)"/>
</clipPath>
<clipPath id="clip1_258_30">
<rect width="70" height="70" fill="white" transform="translate(8 8)"/>
</clipPath>
<clipPath id="clip2_258_30">
<rect width="70" height="70" fill="white"/>
</clipPath>
</defs>
</svg>
