<svg width="70" height="70" viewBox="0 0 70 70" fill="none" xmlns="http://www.w3.org/2000/svg">
    <g clip-path="url(#clip0_273_2)">
        <path
            d="M44.5366 53.2866L57.5984 40.2248C58.9841 38.8391 59.7625 36.9597 59.7625 35C59.7625 33.0404 58.984 31.161 57.5984 29.7753L44.5365 16.7135"
            stroke="white" stroke-width="5" stroke-linecap="round" stroke-linejoin="round" />
        <path d="M54.986 53.2865L44.5365 53.2865L44.5365 42.8371" stroke="white" stroke-width="5"
            stroke-linecap="round" stroke-linejoin="round" />
        <path d="M44.5365 27.1629L44.5365 16.7134L54.9859 16.7134" stroke="white" stroke-width="5"
            stroke-linecap="round" stroke-linejoin="round" />
        <path
            d="M22.7885 43.1022C13.0781 43.1022 9.625 48.0341 9.625 52.6136C9.625 57.1932 13.0781 62.125 22.7885 62.125C32.4989 62.125 35.875 57.1932 35.875 52.6136C35.875 48.0341 32.4989 43.1022 22.7885 43.1022ZM23.3493 59.8682C21.3808 59.8682 20.0392 59.3068 19.1265 57.5454C18.2137 55.7841 16.9491 51.2045 16.8721 49.3661C16.7291 47.4616 17.4329 46.3387 19.1265 45.7773C19.9732 45.4911 21.095 45.3479 22.2277 45.3479C24.1192 45.3479 25.3948 45.7773 26.3735 47.6818C27.3632 49.5092 28.7049 54.0888 28.7049 55.8501C28.7049 59.3068 26.1646 59.8682 23.3493 59.8682Z"
            fill="white" />
        <path
            d="M22.7885 25.4886C13.0781 25.4886 9.625 30.4205 9.625 35C9.625 39.5796 13.0781 44.5114 22.7885 44.5114C32.4989 44.5114 35.875 39.5796 35.875 35C35.875 30.4205 32.4989 25.4886 22.7885 25.4886ZM23.3493 42.2546C21.3808 42.2546 20.0392 41.6932 19.1265 39.9318C18.2137 38.1705 16.9491 33.5909 16.8721 31.7525C16.7291 29.848 17.4329 28.7251 19.1265 28.1637C19.9732 27.8775 21.095 27.7343 22.2277 27.7343C24.1192 27.7343 25.3948 28.1637 26.3735 30.0682C27.3632 31.8956 28.7049 36.4751 28.7049 38.2365C28.7049 41.6932 26.1646 42.2546 23.3493 42.2546Z"
            fill="white" />
        <path
            d="M22.7885 7.875C13.0781 7.875 9.625 12.8069 9.625 17.3864C9.625 21.966 13.0781 26.8978 22.7885 26.8978C32.4989 26.8978 35.875 21.966 35.875 17.3864C35.875 12.8069 32.4989 7.875 22.7885 7.875ZM23.3493 24.641C21.3808 24.641 20.0392 24.0796 19.1265 22.3182C18.2137 20.5569 16.9491 15.9773 16.8721 14.1389C16.7291 12.2344 17.4329 11.1115 19.1265 10.5501C19.9732 10.2639 21.095 10.1207 22.2277 10.1207C24.1192 10.1207 25.3948 10.5501 26.3735 12.4546C27.3632 14.282 28.7049 18.8615 28.7049 20.6229C28.7049 24.0796 26.1646 24.641 23.3493 24.641Z"
            fill="white" />
    </g>
    <defs>
        <clipPath id="clip0_273_2">
            <rect width="70" height="70" fill="white" />
        </clipPath>
    </defs>
</svg>